<svg width="177px" height="71px" viewBox="0 0 177 71" version="1.1" xmlns="http://www.w3.org/2000/svg" xmlns:xlink="http://www.w3.org/1999/xlink">
    <g id="Page-1" stroke="none" stroke-width="1" fill="none" fill-rule="evenodd">
        <g id="Tourism_Malaysia" transform="translate(-8.000000, -61.000000)">
            <path d="M184.252,111.977 C184.252,112.831 184.019,113.645 183.592,114.383 C183.166,115.158 182.584,115.74 181.846,116.167 C181.071,116.594 180.295,116.788 179.402,116.788 C178.549,116.788 177.773,116.594 176.997,116.167 C176.26,115.74 175.678,115.158 175.251,114.383 C174.824,113.645 174.592,112.831 174.592,111.977 C174.592,111.124 174.824,110.309 175.251,109.572 C175.678,108.835 176.26,108.253 176.997,107.826 C177.773,107.399 178.549,107.166 179.402,107.166 C180.295,107.166 181.071,107.399 181.846,107.826 C182.584,108.253 183.166,108.835 183.592,109.572 C184.019,110.309 184.252,111.124 184.252,111.977 Z M183.321,111.977 C183.321,110.93 182.933,109.998 182.157,109.223 C181.42,108.485 180.489,108.098 179.402,108.098 C178.355,108.098 177.424,108.485 176.687,109.223 C175.911,109.998 175.523,110.93 175.523,111.977 C175.523,113.063 175.911,113.956 176.687,114.732 C177.424,115.508 178.355,115.857 179.402,115.857 C180.489,115.857 181.42,115.508 182.157,114.732 C182.933,113.956 183.321,113.063 183.321,111.977 Z M177.23,109.416 L179.558,109.416 C180.178,109.416 180.683,109.533 180.954,109.805 C181.265,110.076 181.381,110.425 181.381,110.852 C181.381,111.201 181.303,111.512 181.071,111.744 C180.838,112.016 180.489,112.21 180.023,112.287 C180.217,112.365 180.334,112.481 180.45,112.559 C180.566,112.676 180.721,112.831 180.838,113.063 C180.877,113.102 181.148,113.568 181.691,114.576 L180.178,114.576 C179.674,113.568 179.364,112.986 179.17,112.792 C179.014,112.598 178.859,112.52 178.665,112.52 C178.627,112.52 178.588,112.52 178.51,112.52 L178.51,114.576 L177.23,114.576 L177.23,109.416 Z M178.51,111.589 L179.053,111.589 C179.441,111.589 179.713,111.512 179.868,111.395 C179.984,111.279 180.062,111.124 180.062,110.93 C180.062,110.736 180.023,110.58 179.868,110.464 C179.713,110.348 179.48,110.309 179.131,110.309 L178.51,110.309 L178.51,111.589 L178.51,111.589 Z" id="Fill-2" fill="#1A1919"></path>
            <path d="M157.405,64.102 C157.405,63.016 158.297,62.124 159.383,62.124 C160.47,62.124 161.362,63.016 161.362,64.102 C161.362,65.189 160.47,66.081 159.383,66.081 C158.297,66.081 157.405,65.189 157.405,64.102" id="Fill-3" fill="#D8232A"></path>
            <path d="M162.759,63.404 C162.759,62.318 163.651,61.425 164.737,61.425 C165.824,61.425 166.716,62.318 166.716,63.404 C166.716,64.49 165.824,65.383 164.737,65.383 C163.651,65.383 162.759,64.49 162.759,63.404" id="Fill-4" fill="#D8232A"></path>
            <path d="M167.996,63.947 C167.996,62.861 168.888,61.969 169.975,61.969 C171.061,61.969 171.954,62.861 171.954,63.947 C171.954,65.033 171.061,65.926 169.975,65.926 C168.888,65.926 167.996,65.033 167.996,63.947" id="Fill-5" fill="#D8232A"></path>
            <path d="M114.574,91.648 C114.574,91.648 113.06,77.914 120.897,67.672 C118.919,67.982 117.638,67.866 115.776,67.128 C114.302,66.585 113.953,65.15 112.401,64.995 C110.771,64.801 109.181,64.723 108.482,66.624 C107.745,68.719 105.922,74.538 114.574,91.648" id="Fill-6" fill="#D8232A"></path>
            <path d="M118.065,95.838 C118.065,95.838 122.488,84.781 133.7,75.353 C131.993,75.625 131.062,75.586 129.316,74.81 C128.114,74.267 127.221,70.969 124.661,69.573 C123.652,69.03 122.837,69.573 121.479,71.047 C120.432,72.249 115.427,81.406 118.065,95.838" id="Fill-7" fill="#D8232A"></path>
            <path d="M53.702,66.585 L57.31,66.585 C60.452,66.508 62.703,66.857 63.828,67.284 C66,68.098 68.134,71.862 67.319,75.392 C66.854,77.371 65.651,78.379 64.449,79.543 C65.263,81.018 67.009,83.927 67.94,86.953 L63.789,86.953 C63.789,86.953 61.345,81.095 58.668,77.371 C60.53,77.72 63.091,77.487 63.556,74.849 C64.177,71.202 60.996,69.999 58.823,70.232 C58.202,70.31 57.775,70.155 57.387,70.31 C57.349,75.664 57.271,84.897 57.62,86.953 L53.663,86.953 C53.663,86.953 53.935,85.945 53.935,85.014 C54.012,76.013 53.973,73.646 53.857,69.844 C53.857,68.68 53.779,67.866 53.702,66.585 Z M69.22,66.585 C69.298,67.866 69.337,68.68 69.376,69.844 C69.453,73.646 69.531,76.013 69.415,85.014 C69.415,85.945 69.143,86.953 69.143,86.953 L73.1,86.953 C72.596,84.005 72.518,67.827 72.79,66.624 L69.22,66.585 Z M83.226,67.206 L83.187,71.668 C83.187,69.805 80.2,69.146 78.648,70.038 C77.795,70.542 77.407,72.405 79.307,73.879 C81.635,75.625 83.924,76.129 84.623,78.884 C85.36,81.716 84.235,84.742 82.101,85.984 C79.424,87.535 76.049,86.915 74.148,86.178 L74.148,82.22 C75.273,82.802 77.135,83.85 79.075,83.307 C81.791,82.492 81.48,80.203 80.821,79.272 C79.307,77.215 77.407,76.827 75.816,75.043 C73.798,72.754 74.497,70.077 75.932,68.292 C77.756,66.042 81.209,66.469 83.226,67.206 Z M85.825,87.264 L85.825,67.012 C85.825,67.012 92.149,69.417 95.874,76.634 C99.404,69.883 105.65,67.012 105.65,67.012 L105.65,87.264 L102.353,87.264 L102.353,74.034 C102.353,74.034 97.115,79.466 96.068,86.915 C94.671,79.504 89.278,73.724 89.278,73.724 L89.278,87.264 L85.825,87.264 Z M52.305,67.284 L52.305,79.698 C52.305,82.414 51.801,84.432 50.753,85.751 C49.667,87.07 48.115,87.768 45.981,87.768 C43.809,87.768 42.218,87.07 41.171,85.751 C40.123,84.432 39.58,82.414 39.58,79.698 L39.58,67.284 L42.722,67.284 L42.722,79.039 C42.722,80.668 42.994,81.91 43.498,82.725 C44.042,83.578 44.856,84.005 45.943,84.005 C46.99,84.005 47.805,83.578 48.348,82.725 C48.93,81.91 49.202,80.668 49.202,79.039 L49.202,67.284 L52.305,67.284 Z M11.918,87.846 L11.918,70.194 L8.504,70.194 L8.504,67.284 L19.056,67.284 L19.056,70.194 L15.41,70.194 L15.41,87.846 L11.918,87.846 Z M38.377,77.332 C38.377,78.767 38.144,80.086 37.64,81.328 C37.136,82.569 36.437,83.695 35.506,84.664 C34.536,85.634 33.489,86.371 32.247,86.915 C31.006,87.419 29.764,87.691 28.445,87.691 C27.126,87.691 25.885,87.419 24.643,86.915 C23.441,86.371 22.354,85.634 21.423,84.664 C20.453,83.695 19.755,82.569 19.251,81.328 C18.746,80.086 18.513,78.729 18.513,77.332 C18.513,75.935 18.746,74.616 19.251,73.375 C19.755,72.094 20.453,71.008 21.423,69.999 C22.354,69.068 23.441,68.292 24.643,67.788 C25.846,67.284 27.126,67.012 28.445,67.012 C29.764,67.012 31.045,67.284 32.247,67.788 C33.489,68.292 34.575,69.068 35.506,69.999 C36.437,70.969 37.136,72.094 37.64,73.336 C38.144,74.577 38.377,75.935 38.377,77.332 Z M28.445,84.199 C29.338,84.199 30.191,84.005 31.006,83.656 C31.859,83.345 32.558,82.841 33.217,82.182 C33.877,81.522 34.381,80.785 34.692,79.97 C35.041,79.155 35.235,78.263 35.235,77.371 C35.235,76.44 35.041,75.547 34.692,74.733 C34.342,73.879 33.877,73.142 33.217,72.482 C32.596,71.862 31.859,71.357 31.045,71.008 C30.23,70.698 29.338,70.504 28.445,70.504 C27.514,70.504 26.661,70.698 25.846,71.008 C25.031,71.357 24.294,71.862 23.673,72.482 C23.014,73.142 22.509,73.879 22.16,74.733 C21.85,75.547 21.656,76.44 21.656,77.371 C21.656,78.263 21.85,79.155 22.16,79.97 C22.509,80.785 23.014,81.522 23.673,82.182 C24.333,82.841 25.07,83.345 25.846,83.695 C26.661,84.005 27.514,84.199 28.445,84.199 L28.445,84.199 Z" id="Fill-8" fill="#32468A"></path>
            <path d="M54.866,116.633 C56.573,96.226 65.535,89.514 65.535,89.514 C65.535,89.514 74.497,96.226 76.165,116.633 L70.966,116.633 C70.966,116.633 70.927,113.878 70.617,112.326 L60.452,112.326 C60.103,113.878 60.064,116.633 60.064,116.633 L54.866,116.633 Z M61.151,107.477 C61.151,107.477 61.849,101.618 65.457,97.661 C69.104,101.541 69.88,107.477 69.88,107.477 L61.151,107.477 L61.151,107.477 Z" id="Fill-9" fill="#32468A"></path>
            <path d="M92.343,116.633 C94.011,96.226 102.973,89.514 102.973,89.514 C102.973,89.514 111.935,96.226 113.604,116.633 L108.444,116.633 C108.444,116.633 108.405,113.878 108.056,112.326 L97.891,112.326 C97.542,113.878 97.503,116.633 97.503,116.633 L92.343,116.633 Z M98.589,107.477 C98.589,107.477 99.327,101.618 102.896,97.661 C106.543,101.541 107.357,107.477 107.357,107.477 L98.589,107.477 L98.589,107.477 Z" id="Fill-10" fill="#32468A"></path>
            <path d="M149.18,116.633 C150.848,96.226 159.81,89.514 159.81,89.514 C159.81,89.514 168.772,96.226 170.479,116.633 L165.281,116.633 C165.281,116.633 165.242,113.878 164.892,112.326 L154.728,112.326 C154.379,113.878 154.379,116.633 154.379,116.633 L149.18,116.633 Z M155.426,107.477 C155.426,107.477 156.163,101.618 159.733,97.661 C163.418,101.541 164.194,107.477 164.194,107.477 L155.426,107.477 L155.426,107.477 Z" id="Fill-11" fill="#32468A"></path>
            <path d="M26.389,116.633 L26.389,90.057 C26.389,90.057 34.73,93.2 39.619,102.705 C44.236,93.82 52.499,90.057 52.499,90.057 L52.499,116.633 L48.154,116.633 L48.154,99.291 C48.154,99.291 41.287,106.429 39.851,116.167 C38.028,106.468 30.967,98.864 30.967,98.864 L30.967,116.633 L26.389,116.633" id="Fill-12" fill="#32468A"></path>
            <path d="M77.717,89.087 C77.795,90.794 77.872,91.881 77.911,93.394 C78.066,98.476 78.105,101.618 77.988,113.607 C77.988,114.848 77.639,116.167 77.639,116.167 L91.102,116.167 L91.063,111.589 C90.171,112.055 82.489,111.744 82.489,111.744 L82.489,89.087 L77.717,89.087" id="Fill-13" fill="#32468A"></path>
            <path d="M106.659,89.087 L110.771,89.087 C110.927,90.872 112.478,92.269 114.884,96.303 C116.164,98.476 117.056,100.222 118.259,102.588 C121.479,93.937 127.881,81.949 139.209,73.995 C149.102,67.09 163.224,66.081 174.902,68.215 C176.376,68.486 176.182,69.262 174.708,69.03 C166.367,67.749 151.469,67.904 140.296,75.78 C128.851,83.811 123.962,92.889 122.216,106.739 C121.285,114.266 122.372,120.086 124.001,126.138 C124.544,128.194 126.018,129.785 123.458,131.53 C121.945,132.578 120.199,130.561 119.617,128.854 C117.988,124.12 117.988,121.986 117.444,117.525 C117.095,114.421 117.677,112.055 116.901,109.494 C115.893,106.08 113.216,100.105 110.849,96.769 C109.181,94.441 106.892,91.105 106.659,89.087" id="Fill-14" fill="#32468A"></path>
            <path d="M142.235,89.087 C142.313,90.794 142.391,91.881 142.429,93.394 C142.585,98.476 142.662,101.618 142.507,113.607 C142.507,114.848 142.158,116.167 142.158,116.167 L147.434,116.167 C146.736,112.287 146.62,90.717 147.007,89.087 C145.417,89.087 142.235,89.087 142.235,89.087" id="Fill-15" fill="#32468A"></path>
            <path d="M138.588,89.359 L138.55,95.45 C138.55,92.889 134.476,91.997 132.42,93.2 C131.217,93.898 130.713,96.458 133.273,98.398 C136.416,100.804 139.558,101.463 140.49,105.188 C141.46,109.067 139.946,113.141 137.037,114.848 C133.467,116.904 128.851,116.128 126.29,115.12 L126.29,109.727 C127.842,110.503 130.364,111.938 132.963,111.201 C136.649,110.115 136.261,107.011 135.291,105.731 C133.273,102.976 130.713,102.433 128.579,100.028 C125.786,96.885 126.756,93.277 128.695,90.872 C131.139,87.807 135.834,88.35 138.588,89.359" id="Fill-16" fill="#32468A"></path>
        </g>
    </g>
</svg>