
<svg width="70px" height="64px" viewBox="0 0 70 64" version="1.1" xmlns="http://www.w3.org/2000/svg" xmlns:xlink="http://www.w3.org/1999/xlink">
    <defs>
        <polygon id="path-9hew3dcgev-1" points="0 0 33.559 0 33.559 28.2291833 0 28.2291833"></polygon>
    </defs>
    <g id="Page-1" stroke="none" stroke-width="1" fill="none" fill-rule="evenodd">
        <g id="Matta">
            <path d="M59.485,19.799 C59.485,30.708 48.088,39.55 34.031,39.55 C19.973,39.55 8.579,30.708 8.579,19.799 C8.579,8.89 19.973,0.048 34.031,0.048 C48.088,0.048 59.485,8.89 59.485,19.799" id="Fill-1" fill="#292D78"></path>
            <polyline id="Fill-2" fill="#FFFFFE" points="39.709 12.409 50.246 19.115 39.572 26.641 39.572 20.552 37.245 20.552 37.245 18.772 39.709 18.772 39.709 12.409"></polyline>
            <path d="M22.672,3.651 C22.672,3.651 16.924,7.415 14.529,9.809 L17.95,9.809 C17.95,9.809 20.413,5.293 22.672,3.651" id="Fill-3" fill="#FFFFFE"></path>
            <path d="M13.503,11.451 L17.334,11.451 C17.334,11.451 15.418,15.899 15.966,18.978 L10.697,18.978 C10.697,18.978 11.313,14.667 13.503,11.451" id="Fill-4" fill="#FFFFFE"></path>
            <path d="M10.424,20.688 L15.487,20.688 C15.487,20.688 16.309,26.915 18.019,29.31 L14.255,29.31 C14.255,29.31 11.313,26.162 10.424,20.688" id="Fill-5" fill="#FFFFFE"></path>
            <path d="M15.35,30.747 L18.36,30.747 C18.36,30.747 19.25,32.731 21.919,35.194 C21.919,35.194 17.813,32.936 15.35,30.747" id="Fill-6" fill="#FFFFFE"></path>
            <path d="M31.498,1.804 C31.498,1.804 26.435,5.909 25.545,9.536 L20.481,9.536 C20.481,9.536 24.899,1.735 31.293,1.735 C32.045,1.735 31.498,1.804 31.498,1.804" id="Fill-7" fill="#FFFFFE"></path>
            <path d="M19.729,11.246 L24.93,11.246 C24.93,11.246 23.424,15.352 23.903,19.046 L18.019,19.046 C18.019,19.046 17.677,14.599 19.729,11.246" id="Fill-8" fill="#FFFFFE"></path>
            <path d="M17.95,20.757 L23.903,20.757 C23.903,20.757 23.424,25.889 25.545,29.173 L20.003,29.173 C20.003,29.173 17.608,25.683 17.95,20.757" id="Fill-9" fill="#FFFFFE"></path>
            <path d="M20.481,30.815 L26.161,30.815 C26.161,30.815 27.803,35.125 31.635,37.726 C31.635,37.726 25.682,39.984 20.481,30.815" id="Fill-10" fill="#FFFFFE"></path>
            <path d="M33.687,2.009 L33.687,9.809 L28.282,9.809 C28.282,9.809 30.54,4.814 33.687,2.009" id="Fill-11" fill="#FFFFFE"></path>
            <path d="M33.756,11.52 L33.756,18.91 L26.161,18.91 C26.161,18.91 26.64,12.615 27.529,11.383 L33.756,11.52" id="Fill-12" fill="#FFFFFE"></path>
            <path d="M33.551,20.62 L33.551,29.378 L27.871,29.378 C27.871,29.378 25.682,24.588 26.298,20.757 L33.551,20.62" id="Fill-13" fill="#FFFFFE"></path>
            <g id="Group-17" transform="translate(0.060000, 23.272817)">
                <mask id="mask-9hew3dcgev-2" fill="white">
                    <use xlink:href="#path-9hew3dcgev-1"></use>
                </mask>
                <g id="Clip-15"></g>
                <path d="M33.559,7.33718331 L33.559,14.2481833 C33.559,14.2481833 29.864,11.1001833 28.085,7.74818331 L27.811,7.26918331 L33.559,7.33718331" id="Fill-14" fill="#FFFFFE" mask="url(#mask-9hew3dcgev-2)"></path>
                <path d="M32.875,28.2291833 L25.577,28.2291833 C25.577,28.2291833 22.84,23.1191833 16.454,23.1191833 C11.435,20.4741833 0.214,13.3581833 -0.06,0.0381833104 C2.587,-0.32681669 7.514,2.04518331 7.514,2.04518331 C7.514,2.04518331 9.703,13.2661833 23.752,17.5551833 C36.433,21.9351833 32.875,28.2291833 32.875,28.2291833" id="Fill-16" fill="#D8232A" mask="url(#mask-9hew3dcgev-2)"></path>
            </g>
            <path d="M36.224,51.502 L43.521,51.502 C43.521,51.502 46.258,46.392 52.645,46.392 C57.663,43.747 68.885,36.631 69.158,23.311 C66.511,22.946 61.585,25.318 61.585,25.318 C61.585,25.318 59.396,36.539 45.347,40.828 C32.665,45.208 36.224,51.502 36.224,51.502" id="Fill-18" fill="#D8232A"></path>
            <path d="M7.208,59.348 C7.208,59.348 12.613,60.647 8.576,63.658 L5.155,63.658 L5.155,53.805 L10.629,53.805 C10.629,53.805 12.134,54.899 12.682,55.926 L12.682,54.079 L17.129,54.079 C17.129,54.079 19.045,56.2 19.045,59.416 C19.045,59.416 19.182,62.016 20.208,62.357 L20.208,63.658 L17.197,63.658 C17.197,63.658 15.624,63.59 15.692,59.484 C15.692,59.484 14.598,57.842 14.05,59.142 C14.05,59.142 14.05,61.742 15.077,62.016 L15.077,63.795 L12.339,63.795 C12.339,63.795 10.903,63.521 10.834,61.263 C10.834,61.263 11.382,57.432 7.208,59.348" id="Fill-19" fill="#292D78"></path>
            <path d="M23.722,54.239 L28.922,54.239 L32.388,63.727 L27.553,63.727 L26.731,62.084 C26.731,62.084 24.998,63.908 21.714,63.452 C21.714,63.452 17.88,60.987 23.722,54.239" id="Fill-20" fill="#292D78"></path>
            <path d="M53.096,53.966 L58.296,53.966 L61.765,63.452 L56.928,63.452 L56.106,61.811 C56.106,61.811 54.375,63.635 51.091,63.179 C51.091,63.179 47.259,60.714 53.096,53.966" id="Fill-21" fill="#292D78"></path>
            <path d="M32.113,54.239 L39.869,54.239 L39.869,58.8 L36.037,58.8 C36.037,58.8 35.764,61.992 39.229,60.808 L39.686,60.534 C39.686,60.534 40.874,63.818 34.759,64 C34.759,64 31.658,63.087 32.569,59.621 L32.569,58.618 L31.932,58.618 L31.932,54.147 L32.113,54.239" id="Fill-22" fill="#292D78"></path>
            <path d="M41.145,54.145 L48.9,54.145 L48.9,58.708 L45.069,58.708 C45.069,58.708 44.796,61.9 48.262,60.714 L48.717,60.439 C48.717,60.439 49.906,63.725 43.79,63.908 C43.79,63.908 40.69,62.997 41.601,59.529 L41.601,58.524 L40.964,58.524 L40.964,54.056 L41.145,54.145" id="Fill-23" fill="#292D78"></path>
            <path d="M24.358,56.063 C24.358,56.063 21.714,59.165 23.629,61.355 C23.629,61.355 28.558,60.897 24.358,56.063" id="Fill-24" fill="#FFFFFE"></path>
            <path d="M53.737,55.789 C53.737,55.789 51.091,58.892 53.006,61.081 C53.006,61.081 57.933,60.624 53.737,55.789" id="Fill-25" fill="#FFFFFE"></path>
        </g>
    </g>
</svg>